<?xml version="1.0" encoding="utf-8"?>
<!-- Generator: Adobe Illustrator 28.3.0, SVG Export Plug-In . SVG Version: 6.00 Build 0)  -->
<svg version="1.1" id="Lag_1" xmlns="http://www.w3.org/2000/svg" xmlns:xlink="http://www.w3.org/1999/xlink" x="0px" y="0px"
	 viewBox="0 0 841.9 595.3" style="enable-background:new 0 0 841.9 595.3;" xml:space="preserve">
<style type="text/css">
	.st0{fill:#FAF0E6;stroke:#293694;stroke-width:2;stroke-miterlimit:10;}
	.st1{fill:none;stroke:#293694;stroke-miterlimit:10;}
	.st2{fill:none;stroke:#293694;stroke-width:3;stroke-miterlimit:10;}
	.st3{fill:none;stroke:#293694;stroke-width:0.75;stroke-miterlimit:10;}
	.st4{fill:none;}
	.st5{fill:none;stroke:#293694;stroke-width:2;stroke-miterlimit:10;}
	.st6{fill:#FAF0E6;stroke:#4E3894;stroke-miterlimit:10;}
	.st7{fill:#FAF0E6;stroke:#293694;stroke-width:0.75;stroke-miterlimit:10;}
	.st8{fill:#FAF0E6;stroke:#293694;stroke-miterlimit:10;}
	.st9{fill:#F8DFFF;stroke:#293694;stroke-width:2;stroke-miterlimit:10;}
</style>
<rect y="0.7" class="st0" width="841.9" height="593.8"/>
<polygon class="st1" points="107.3,595.3 255.3,596.6 743.9,595.3 743.6,480.6 729,480.8 729.2,468.7 716.8,469.3 698.1,398.8 
	676.9,305.6 636.5,464.9 634.1,471.6 618,471.6 618,480.8 605.6,480.8 605.6,480.8 605.2,456.1 603.1,343.4 421.5,345.2 
	421.5,430.6 389.1,430.2 388.5,264.8 385.2,260.5 373.7,246.1 337.2,256.4 316.7,262.2 316.7,437.5 283.7,437.9 282.9,303.3 
	282.8,289.2 262.6,289 214,288.3 213.9,401.5 214,594.6 107.5,448.6 107.5,481 107.5,505.2 "/>
<path class="st2" d="M419,336.1c2.8,5.1,179.2,3.5,181-1.6c0.9-2.6-42.2-6.5-77.7-7.1C469.6,326.7,417.4,333.3,419,336.1z"/>
<line class="st3" x1="261" y1="289.8" x2="257.3" y2="597.4"/>
<line class="st3" x1="212.4" y1="379.6" x2="283.4" y2="383.2"/>
<line class="st3" x1="213.3" y1="366.9" x2="282.4" y2="366.9"/>
<path class="st4" d="M282.4,362.5h-69.1H282.4z"/>
<line class="st4" x1="282.6" y1="342.6" x2="213.1" y2="342.6"/>
<path class="st5" d="M243.6,287"/>
<line class="st3" x1="239.6" y1="288.5" x2="240.3" y2="597.3"/>
<polygon class="st4" points="595.2,197.5 607.2,197.5 607.2,197.5 "/>
<polyline class="st6" points="639.8,591.2 639.8,528.7 660.1,528.6 660.1,500.5 690.7,500.4 690.7,529 718.5,528.6 719,594.2 "/>
<g>
	<rect x="446.8" y="373.2" class="st3" width="83.3" height="215.9"/>
	<line class="st3" x1="446.8" y1="553.2" x2="530.2" y2="553.2"/>
	<line class="st3" x1="446.8" y1="517.2" x2="530.2" y2="517.2"/>
	<line class="st3" x1="446.8" y1="481.2" x2="530.2" y2="481.2"/>
	<line class="st3" x1="446.8" y1="445.2" x2="530.2" y2="445.2"/>
	<line class="st3" x1="446.8" y1="409.2" x2="530.2" y2="409.2"/>
	<line class="st3" x1="516.3" y1="373.2" x2="516.3" y2="589.1"/>
	<line class="st3" x1="502.4" y1="373.2" x2="502.4" y2="589.1"/>
	<line class="st3" x1="488.5" y1="373.2" x2="488.5" y2="589.1"/>
	<line class="st3" x1="474.6" y1="373.2" x2="474.6" y2="589.1"/>
	<line class="st3" x1="460.7" y1="373.2" x2="460.7" y2="589.1"/>
</g>
<path class="st7" d="M657.9,571.2h-11.2v-15.7c0-2.7,2.2-4.9,4.9-4.9h1c2.9,0,5.3,2.4,5.3,5.3V571.2z"/>
<path class="st7" d="M710.6,571.4h-11.2v-16c0-2.6,2.1-4.8,4.8-4.8h1.2c2.9,0,5.2,2.3,5.2,5.2V571.4z"/>
<g>
	<rect x="339.7" y="8347" class="st5" width="28.7" height="56.7"/>
	<line class="st5" x1="339.7" y1="8394.2" x2="368.5" y2="8394.2"/>
	<line class="st5" x1="339.7" y1="8384.8" x2="368.5" y2="8384.8"/>
	<line class="st5" x1="339.7" y1="8375.3" x2="368.5" y2="8375.3"/>
	<line class="st5" x1="339.7" y1="8365.9" x2="368.5" y2="8365.9"/>
	<line class="st5" x1="339.7" y1="8356.4" x2="368.5" y2="8356.4"/>
	<line class="st5" x1="363.7" y1="8347" x2="363.7" y2="8403.7"/>
	<line class="st5" x1="358.9" y1="8347" x2="358.9" y2="8403.7"/>
	<line class="st5" x1="354.1" y1="8347" x2="354.1" y2="8403.7"/>
	<line class="st5" x1="349.3" y1="8347" x2="349.3" y2="8403.7"/>
	<line class="st5" x1="344.5" y1="8347" x2="344.5" y2="8403.7"/>
</g>
<line class="st5" x1="282.8" y1="293.6" x2="214" y2="293.6"/>
<circle class="st0" cx="249.7" cy="373.4" r="9.7"/>
<rect x="673.6" y="548.4" class="st7" width="11.6" height="45.6"/>
<ellipse class="st8" cx="678.2" cy="474.9" rx="4.5" ry="6.3"/>
<line class="st3" x1="681" y1="480.8" x2="675.7" y2="470"/>
<line class="st3" x1="675.5" y1="479.7" x2="681" y2="470"/>
<line class="st3" x1="673.7" y1="474.8" x2="682.7" y2="474.8"/>
<g>
	<path class="st1" d="M316.1,596h72.4V264.8c-0.7,0-59,0.2-59,0.2h-0.8h-3.6c-2.5,0-5,0-7.5,0C317.1,374.9,316.6,484.7,316.1,596z"
		/>
	<path class="st1" d="M316.1,280.5c8.4,0,16.8,0,25.2,0c15.7,0,31.5,0,47.2,0"/>
	<line class="st1" x1="316.1" y1="296.2" x2="388.5" y2="296.2"/>
	<line class="st1" x1="316.1" y1="311.9" x2="388.5" y2="311.9"/>
	<line class="st1" x1="316.1" y1="327.6" x2="388.5" y2="327.6"/>
	<line class="st1" x1="316.1" y1="343.3" x2="388.5" y2="343.3"/>
	<line class="st1" x1="316.1" y1="359" x2="388.5" y2="359"/>
	<line class="st1" x1="316.1" y1="374.7" x2="388.5" y2="374.7"/>
	<line class="st1" x1="316.1" y1="390.4" x2="388.5" y2="390.4"/>
	<line class="st1" x1="316.1" y1="406.1" x2="388.5" y2="406.1"/>
	<line class="st1" x1="316.1" y1="421.8" x2="388.5" y2="421.8"/>
	<line class="st1" x1="316.1" y1="437.5" x2="388.5" y2="437.5"/>
	<line class="st1" x1="316.1" y1="453.2" x2="388.5" y2="453.2"/>
	<line class="st1" x1="316.1" y1="468.9" x2="388.5" y2="468.9"/>
	<line class="st1" x1="316.1" y1="484.6" x2="388.5" y2="484.6"/>
	<line class="st1" x1="316.1" y1="500.3" x2="388.5" y2="500.3"/>
	<line class="st1" x1="316.1" y1="516" x2="388.5" y2="516"/>
	<line class="st1" x1="316.1" y1="531.7" x2="388.5" y2="531.7"/>
	<line class="st1" x1="316.1" y1="547.4" x2="388.5" y2="547.4"/>
	<line class="st1" x1="316.1" y1="563.1" x2="388.5" y2="563.1"/>
	<line class="st1" x1="316.1" y1="578.8" x2="388.5" y2="578.8"/>
</g>
<line class="st1" x1="385.3" y1="264.8" x2="385.2" y2="260.5"/>
<line class="st1" x1="382.2" y1="264.5" x2="382.2" y2="256.8"/>
<line class="st1" x1="379.6" y1="253.3" x2="379.6" y2="264.8"/>
<line class="st1" x1="376.8" y1="250" x2="376.8" y2="264.8"/>
<line class="st1" x1="373.7" y1="246.1" x2="373.7" y2="265.1"/>
<line class="st1" x1="370.8" y1="246.9" x2="370.8" y2="264.8"/>
<line class="st1" x1="367" y1="248" x2="367" y2="264.8"/>
<line class="st1" x1="362.5" y1="249.3" x2="362.5" y2="264.9"/>
<line class="st1" x1="357.6" y1="264.9" x2="357.6" y2="250.7"/>
<line class="st1" x1="353.7" y1="251.8" x2="353.7" y2="264.9"/>
<line class="st1" x1="350.2" y1="252.8" x2="350.2" y2="264.9"/>
<line class="st1" x1="346" y1="253.9" x2="346" y2="264.9"/>
<line class="st1" x1="341.9" y1="255.1" x2="341.9" y2="264.8"/>
<polyline class="st1" points="337,264.8 337.2,256.4 331.8,258 331.8,264.9 327.1,265 327.1,259.3 322.4,260.6 322.4,265 "/>
<line class="st5" x1="317.6" y1="265" x2="317.6" y2="261.9"/>
<path class="st1" d="M323.5,265.5"/>
<path class="st1" d="M323.5,265.1c11.6,7.5,14.9,14.9,20.7,15.4"/>
<path class="st1" d="M384.2,264.8c-12.2,7.7-15.6,15.2-21.7,15.7"/>
<path class="st1" d="M323.5,280.5c11.6,7.6,14.9,15.2,20.7,15.7"/>
<path class="st1" d="M323.5,296.2c11.6,7.7,14.9,15.2,20.7,15.7"/>
<path class="st1" d="M323.5,311.9c12.6,7.7,16.2,15.2,22.5,15.7"/>
<path class="st1" d="M324.9,327.6c11.8,7.7,15.2,15.2,21.1,15.7"/>
<path class="st1" d="M324.7,359c8.2,7.7,10.6,15.2,14.7,15.7"/>
<path class="st1" d="M323.5,343.3c12.6,7.7,16.2,15.2,22.5,15.7"/>
<path class="st1" d="M322.7,374.7c9.3,7.7,12,15.2,16.7,15.7"/>
<path class="st1" d="M323.1,390.3c9.1,7.7,11.7,15.2,16.3,15.7"/>
<path class="st1" d="M322.7,406c13,7.7,16.7,15.2,23.3,15.7"/>
<path class="st1" d="M322.7,421.6c9.3,7.7,12,15.2,16.7,15.7"/>
<path class="st1" d="M320.2,437.4c9.5,7.7,12.2,15.2,17,15.7"/>
<path class="st1" d="M318.8,453.1c8.7,7.7,11.1,15.2,15.5,15.7"/>
<path class="st1" d="M316.1,468.9c13,7.7,16.7,15.2,23.3,15.7"/>
<path class="st1" d="M318.8,484.6c13,7.7,16.7,15.2,23.3,15.7"/>
<path class="st1" d="M318.8,500.3c8.9,7.7,11.4,15.2,15.9,15.7"/>
<path class="st1" d="M318.8,515.9c8.7,7.7,11.1,15.2,15.5,15.7"/>
<path class="st1" d="M318.8,531.7c8.9,7.7,11.4,15.2,15.9,15.7"/>
<path class="st1" d="M319.3,547.3c7.2,7.7,9.2,15.2,12.8,15.7"/>
<path class="st1" d="M318.8,563.1c7.4,7.7,9.5,15.2,13.2,15.7"/>
<path class="st1" d="M318.8,578.6c4.4,7.7,5.7,15.2,7.9,15.7"/>
<path class="st1" d="M384.2,280.5c-12.2,7.7-15.6,15.2-21.7,15.7"/>
<path class="st1" d="M382.2,296.2c-12.2,7.7-15.6,15.2-21.7,15.7"/>
<path class="st1" d="M387.6,311.8c-12.2,7.7-15.6,15.2-21.7,15.7"/>
<path class="st1" d="M387.6,327.6c-12.2,7.7-15.6,15.2-21.7,15.7"/>
<path class="st1" d="M384.6,343.3c-12.2,7.7-15.6,15.2-21.7,15.7"/>
<path class="st1" d="M382.2,359c-9.1,7.7-11.7,15.2-16.3,15.7"/>
<path class="st1" d="M383.8,374.7c-9.4,7.7-12.1,15.2-16.8,15.7"/>
<path class="st1" d="M384.6,390.3c-9.9,7.7-12.7,15.2-17.6,15.7"/>
<path class="st1" d="M381.1,406c-12.2,7.7-15.6,15.2-21.7,15.7"/>
<path class="st1" d="M381.1,421.6c-9.6,7.7-12.4,15.2-17.2,15.7"/>
<path class="st1" d="M382.8,437.3C374,445,371.5,452.5,367,453"/>
<path class="st1" d="M384.4,453.2c-9.7,7.7-12.5,15.2-17.4,15.7"/>
<path class="st1" d="M388.5,468.6c-12.2,7.7-15.6,15.2-21.7,15.7"/>
<path class="st1" d="M382.3,484.6c-12.2,7.7-15.6,15.2-21.7,15.7"/>
<path class="st1" d="M388.5,499.9c-9.6,7.7-12.3,15.2-17.1,15.7"/>
<path class="st1" d="M384.6,516c-10,7.7-12.8,15.2-17.8,15.7"/>
<path class="st1" d="M388.5,531.7c-10.3,7.7-13.2,15.2-18.3,15.7"/>
<path class="st1" d="M382.1,547.3c-6.6,7.7-8.5,15.2-11.9,15.7"/>
<path class="st1" d="M384.6,563.1c-8.1,7.7-10.4,15.2-14.4,15.7"/>
<path class="st1" d="M383.2,578.6c-5.1,7.7-6.6,15.2-9.2,15.7"/>
<path class="st9" d="M128.9,433.3"/>
<polyline class="st1" points="138,490.2 97.1,490.2 107.6,482.4 "/>
<polyline class="st1" points="172.1,537.3 94.4,537.3 107.3,529.3 "/>
<polyline class="st1" points="188.2,559.2 94.4,559.2 107.4,551.1 "/>
<polyline class="st8" points="155.4,514.3 95.3,514.3 107.5,506.7 107.5,520.5 "/>
<polyline class="st8" points="201.4,577.4 107.3,577.4 94.4,577.4 107.3,568.9 107.3,588.2 "/>
<polygon class="st4" points="34,75.7 107,75.7 107,75.7 "/>
</svg>
